<svg width="67" height="67" viewBox="0 0 67 67" fill="none" xmlns="http://www.w3.org/2000/svg">
<path d="M55.5 59L53.5 61.5L19 59L15 61.5H9.5L11.5 7.5H55.5V59ZM22.333 41.875C20.7916 41.8752 19.5414 43.1246 19.541 44.666C19.541 46.2077 20.7914 47.4578 22.333 47.458H36.291C37.8328 47.458 39.083 46.2078 39.083 44.666C39.0827 43.1245 37.8326 41.875 36.291 41.875H22.333ZM22.333 30.708C20.7915 30.7082 19.5412 31.9585 19.541 33.5C19.5412 35.0415 20.7915 36.2908 22.333 36.291H44.666C46.2077 36.291 47.4578 35.0416 47.458 33.5C47.4578 31.9584 46.2077 30.708 44.666 30.708H22.333ZM22.333 19.541C20.7915 19.5412 19.5412 20.7915 19.541 22.333C19.541 23.8747 20.7914 25.1248 22.333 25.125H39.083C40.6248 25.125 41.875 23.8748 41.875 22.333C41.8748 20.7914 40.6247 19.541 39.083 19.541H22.333Z" fill="white"/>
<path d="M11.1667 8.375C11.1667 7.6346 11.4608 6.92453 11.9843 6.40099C12.5079 5.87745 13.2179 5.58333 13.9583 5.58333C14.6496 5.57953 15.3276 5.77324 15.9125 6.14167L18.5171 7.81667C19.1007 8.18957 19.7788 8.38772 20.4713 8.38772C21.1638 8.38772 21.8419 8.18957 22.4255 7.81667L25.0329 6.14167C25.6164 5.76877 26.2945 5.57062 26.987 5.57062C27.6796 5.57062 28.3577 5.76877 28.9412 6.14167L31.5458 7.81667C32.1294 8.18957 32.8075 8.38772 33.5 8.38772C34.1925 8.38772 34.8706 8.18957 35.4542 7.81667L38.0588 6.14167C38.6424 5.76877 39.3204 5.57062 40.013 5.57062C40.7055 5.57062 41.3836 5.76877 41.9671 6.14167L44.5745 7.81667C45.1581 8.18957 45.8362 8.38772 46.5287 8.38772C47.2212 8.38772 47.8993 8.18957 48.4829 7.81667L51.0875 6.14167C51.6724 5.77324 52.3504 5.57953 53.0417 5.58333C53.7821 5.58333 54.4921 5.87745 55.0157 6.40099C55.5392 6.92453 55.8333 7.6346 55.8333 8.375V58.625C55.8333 59.3654 55.5392 60.0755 55.0157 60.599C54.4921 61.1225 53.7821 61.4167 53.0417 61.4167C52.3504 61.4205 51.6724 61.2268 51.0875 60.8583L48.4829 59.1833C47.8993 58.8104 47.2212 58.6123 46.5287 58.6123C45.8362 58.6123 45.1581 58.8104 44.5745 59.1833L41.9671 60.8583C41.3836 61.2312 40.7055 61.4294 40.013 61.4294C39.3204 61.4294 38.6424 61.2312 38.0588 60.8583L35.4542 59.1833C34.8706 58.8104 34.1925 58.6123 33.5 58.6123C32.8075 58.6123 32.1294 58.8104 31.5458 59.1833L28.9412 60.8583C28.3577 61.2312 27.6796 61.4294 26.987 61.4294C26.2945 61.4294 25.6164 61.2312 25.0329 60.8583L22.4255 59.1833C21.8419 58.8104 21.1638 58.6123 20.4713 58.6123C19.7788 58.6123 19.1007 58.8104 18.5171 59.1833L15.9125 60.8583C15.3276 61.2268 14.6496 61.4205 13.9583 61.4167C13.2179 61.4167 12.5079 61.1225 11.9843 60.599C11.4608 60.0755 11.1667 59.3654 11.1667 58.625V8.375Z" stroke="white" stroke-width="5.58333" stroke-linecap="round" stroke-linejoin="round"/>
</svg>
