<svg width="24" height="24" viewBox="0 0 24 24" fill="none" xmlns="http://www.w3.org/2000/svg">
<g clip-path="url(#clip0_226_9)">
<path d="M-0.0135803 22.113V13.1722H2.51417L2.59571 15.7247L2.3375 15.6557C2.43263 15.0349 2.6093 14.5243 2.85392 14.138C3.09854 13.7517 3.4247 13.4481 3.80522 13.255C4.18574 13.0618 4.63421 12.979 5.13704 12.979C5.74859 12.979 6.23784 13.117 6.60477 13.3929C6.9717 13.6689 7.2435 14.0552 7.42017 14.5519C7.59684 15.0486 7.67838 15.6281 7.67838 16.3042V22.113H4.90601V16.8837C4.90601 16.318 4.82447 15.9179 4.66139 15.6833C4.49831 15.4488 4.25369 15.3246 3.94112 15.3246C3.73727 15.3246 3.54701 15.3936 3.35675 15.5178C3.18008 15.6419 3.03059 15.8351 2.92187 16.0835C2.81315 16.3318 2.7452 16.663 2.7452 17.0493V22.113H-0.0135803Z" fill="white"/>
<path d="M7.74634 15.3246V13.1722H15.9004V15.3246H7.74634ZM13.128 22.1131C12.0544 22.1131 11.2662 21.8647 10.7769 21.3818C10.2877 20.8851 10.0295 20.1262 10.0295 19.1052V11.075H12.8018V18.7464C12.8018 19.1604 12.897 19.4639 13.1008 19.6709C13.3047 19.8778 13.6036 19.9744 14.0113 19.9744H15.9004V22.1269H13.128V22.1131Z" fill="white"/>
<path d="M16.2945 22.1131V10.3713H19.0668V15.0625L18.8766 14.8142C19.0261 14.3864 19.2299 14.0415 19.4745 13.7656C19.7192 13.5034 20.0045 13.3102 20.3443 13.1723C20.684 13.0481 21.0646 12.9791 21.4859 12.9791C22.0702 12.9791 22.5459 13.1171 22.9264 13.3792C23.2933 13.6552 23.5651 14.0415 23.7418 14.5382C23.9185 15.0349 24 15.642 24 16.3319V22.1131H21.2276V16.8424C21.2276 16.2629 21.1325 15.8628 20.9558 15.642C20.7792 15.4213 20.5481 15.3247 20.2628 15.3247C19.9366 15.3247 19.6512 15.4627 19.4202 15.7524C19.1891 16.0422 19.0668 16.4837 19.0668 17.077V22.1131H16.2945Z" fill="white"/>
<path d="M11.5651 1.11304C10.8177 2.17545 10.8041 3.18268 10.8041 3.18268C10.8041 3.47243 11.0351 3.70699 11.3069 3.70699C11.5787 3.70699 11.8234 3.47243 11.8234 3.18268C11.8234 2.89293 12.0544 2.67217 12.3262 2.67217C12.598 2.67217 12.8426 2.90673 12.8426 3.18268C12.8426 4.06573 12.1495 4.75561 11.2933 4.75561C10.4372 4.75561 9.75767 4.06573 9.75767 3.18268C9.75767 3.14129 9.75767 2.25824 10.2877 1.18203C7.21633 1.74773 5.17783 4.72802 5.72143 7.86008C6.27862 10.9783 9.21407 13.0618 12.299 12.4961C14.9898 12.0132 16.9604 9.62618 16.9604 6.83906C16.974 3.77598 14.5957 1.23722 11.5651 1.11304ZM8.23558 6.85285C8.23558 6.42513 8.57534 6.06639 9.01022 6.06639C9.4451 6.06639 9.78485 6.42513 9.78485 6.85285C9.78485 7.28058 9.43151 7.63932 9.01022 7.63932C8.58893 7.63932 8.23558 7.29438 8.23558 6.85285ZM13.3998 9.90213C12.1359 10.7162 10.5187 10.7162 9.25484 9.90213C9.01022 9.75036 8.94227 9.41921 9.09176 9.18465C9.24125 8.95009 9.56741 8.8811 9.79844 9.03288C10.7362 9.61238 11.9185 9.61238 12.8426 9.03288C13.0872 8.8811 13.3998 8.9363 13.5493 9.18465C13.6988 9.43301 13.6444 9.75036 13.3998 9.90213ZM13.6444 7.63932C13.2095 7.63932 12.8698 7.29438 12.8698 6.85285C12.8698 6.41133 13.2095 6.06639 13.6444 6.06639C14.0793 6.06639 14.4055 6.42513 14.4055 6.85285C14.4055 7.28058 14.0657 7.63932 13.6444 7.63932Z" fill="white"/>
</g>
<defs>
<clipPath id="clip0_226_9">
<rect width="24" height="24" fill="white"/>
</clipPath>
</defs>
</svg>
