<svg width="80" height="80" viewBox="0 0 80 80" fill="none" xmlns="http://www.w3.org/2000/svg">
<rect width="80" height="80" fill="black"/>
<mask id="path-2-outside-1_119_17" maskUnits="userSpaceOnUse" x="14" y="12" width="53" height="56" fill="black">
<rect fill="white" x="14" y="12" width="53" height="56"/>
<path d="M53.4678 14.013C53.7849 13.9677 54.1048 14.0407 54.374 14.2308C54.6098 14.3974 54.751 14.6151 54.8359 14.7748C54.9994 15.0821 55.1095 15.4835 55.2031 15.8685C55.302 16.2751 55.4135 16.8004 55.5459 17.3978C56.0759 19.789 57.0721 23.8826 57.7861 26.4671C58.4783 25.3409 59.1053 24.3198 59.627 23.4769C61.954 19.7165 62.1476 19.4478 62.3447 19.1849C62.676 18.7431 63.3023 18.6535 63.7441 18.9847C64.1859 19.3161 64.2756 19.9423 63.9443 20.3841C63.8152 20.5563 63.6816 20.7239 61.3271 24.5287C60.5916 25.7173 59.6421 27.2577 58.6045 28.9525C59.2446 30.5368 59.8651 31.3182 60.4834 32.0853C61.7732 33.6857 62.3842 35.3808 62.998 36.9251C63.4942 38.1734 63.854 40.1708 64.1582 42.4447C64.4678 44.7589 64.6387 47.4939 64.5547 49.0101C64.5344 49.376 64.4953 49.79 64.3496 50.1624C64.1801 50.5955 63.8843 50.9362 63.4502 51.1585C63.0721 51.3522 62.6313 51.4323 62.1973 51.4798C61.7498 51.5288 61.197 51.5529 60.54 51.5736C59.4662 51.6074 58.0482 51.636 56.3447 51.6986C56.6134 53.4769 56.9078 55.1884 57.1436 56.4447C57.2569 57.0489 57.355 57.5362 57.4404 57.933C57.9135 58.7678 58.2802 59.5881 58.3447 60.2914C58.3512 60.3615 58.356 60.4657 58.3418 60.5833C58.3319 60.6658 58.2938 60.9409 58.0684 61.1849C57.9372 61.3268 57.754 61.4447 57.5293 61.4925C57.3152 61.538 57.1299 61.5059 57.002 61.4652C56.7729 61.3922 56.6258 61.2577 56.5723 61.2064C56.445 61.0843 56.3526 60.9433 56.2969 60.8509C56.2314 60.7425 56.1689 60.6199 56.1094 60.4915C55.9368 60.1191 55.7775 59.6532 55.5557 58.6712C55.0952 57.8934 54.4608 56.965 53.6768 55.9144C52.8296 54.7794 51.5927 53.6437 50.1182 52.4388C49.9754 52.3222 49.83 52.2072 49.6836 52.0921C49.0275 52.1475 48.3558 52.2098 47.6709 52.2796C48.0397 52.8163 48.2857 53.1756 48.4434 53.4183C48.5669 53.6085 48.6883 53.804 48.7617 53.9886C48.8045 54.0961 48.8485 54.2417 48.8555 54.4154C48.8628 54.599 48.8253 54.744 48.7979 54.8304C48.7108 55.1039 48.547 55.3076 48.4229 55.4378C48.2894 55.5779 48.1339 55.7032 47.9785 55.8148C47.6675 56.0382 47.2667 56.2679 46.8154 56.5003C45.9886 56.9262 44.8893 57.4107 43.6211 57.9398C43.3631 58.5406 43.1451 59.0426 42.9678 59.4193C42.8624 59.6432 42.7622 59.8438 42.6709 60.0023C42.6259 60.0805 42.5716 60.1691 42.5098 60.2513C42.4702 60.304 42.341 60.4764 42.125 60.596C41.9627 60.6859 41.7525 60.7553 41.5088 60.7494C41.2658 60.7434 41.0605 60.6642 40.9033 60.5677C40.6256 60.3971 40.4497 60.1427 40.3486 59.9808C40.2481 59.8198 40.1458 59.6195 40.0381 59.39C39.936 59.4305 39.8335 59.4722 39.7305 59.513C38.5972 59.9624 37.8459 60.1762 37.2295 60.2523C36.9856 61.4043 36.8083 62.2922 36.6602 62.9945C36.5731 63.4073 36.4937 63.76 36.417 64.0384C36.3518 64.2752 36.2537 64.6001 36.0801 64.849C35.9732 65.0022 35.5753 65.4814 34.9092 65.3343C34.6334 65.2734 34.4456 65.1218 34.3398 65.013C34.2324 64.9025 34.1594 64.7859 34.1113 64.6976C33.9393 64.3816 33.8311 63.9356 33.749 63.4984C33.5727 62.5583 33.4269 61.1049 33.3311 59.2425C33.2542 57.7504 33.2099 56.0001 33.2002 54.2718C31.9069 54.4569 30.658 54.6299 29.4805 54.7699C24.2335 55.3935 20.6496 55.3929 17 55.3929C16.4477 55.3929 16 54.9452 16 54.3929C16 53.8406 16.4477 53.3929 17 53.3929C18.9552 53.3929 20.8673 53.3892 23.0146 53.2943C22.9729 53.2921 22.9309 53.2907 22.8887 53.2884C22.3334 53.2591 21.7435 53.2237 21.1807 53.1556C20.6212 53.0879 20.0466 52.9834 19.5283 52.7992C19.0132 52.6161 18.4825 52.3292 18.0908 51.8529C17.3091 50.9021 17.4049 49.6049 17.5811 48.5775C17.6763 48.0219 17.8187 47.4338 17.9609 46.8578C18.1059 46.2703 18.252 45.6908 18.373 45.1068C18.8481 42.8154 18.8325 40.9026 18.5811 39.4476C18.3249 37.9658 17.8392 37.0348 17.457 36.6244C17.4315 36.5969 17.4046 36.5747 17.3818 36.5521C17.2436 36.4951 17.1245 36.442 17.0264 36.3851C16.9588 36.3459 16.8527 36.2792 16.752 36.179C16.6886 36.116 16.408 35.8275 16.4443 35.3626C16.4825 34.875 16.8283 34.5978 17.0898 34.4964C17.3028 34.414 17.4891 34.4243 17.5654 34.431C17.7412 34.4466 17.8877 34.5016 17.9766 34.5404C18.1243 34.6048 18.2751 34.6964 18.4258 34.8099C18.8118 34.9461 19.4729 35.1543 20.585 35.4564C22.285 35.9182 24.9832 36.5854 27.7578 37.1478C25.8896 34.26 24.835 32.9619 23.585 31.5755C21.2006 28.9313 19.6651 27.5082 18.6621 26.7328C17.8194 26.2775 17.3147 26.0213 17.0303 25.8822C16.8851 25.8112 16.7956 25.7702 16.7461 25.7474C16.7327 25.7412 16.6924 25.7221 16.665 25.7083C16.6576 25.7046 16.6299 25.6913 16.5977 25.6722C16.5831 25.6636 16.5459 25.6411 16.502 25.6078C16.4799 25.5911 16.44 25.5599 16.3955 25.515C16.3612 25.4803 16.2658 25.3804 16.1943 25.222C16.1156 25.0474 16.0233 24.6856 16.2393 24.3109C16.4242 23.9901 16.713 23.8856 16.8086 23.8558C17.0035 23.7952 17.1708 23.8125 17.1758 23.8128L17.3145 23.8324L17.6836 23.9173C17.8394 23.9605 18.0272 24.0231 18.2451 24.1195C18.6505 24.2988 19.1324 24.5832 19.7432 25.0433C19.8875 25.1216 20.0406 25.2052 20.2031 25.2943C22.4572 26.5302 26.5434 28.8418 30.3359 30.514C30.5386 30.6034 30.7412 30.6894 30.9414 30.7747C29.4599 28.5027 28.1172 26.4306 27.0781 24.7914C25.1976 21.8246 24.266 20.222 23.8691 19.3451C23.7677 19.1208 23.6855 18.9121 23.6338 18.7201C23.587 18.5465 23.5348 18.2824 23.5938 17.9964C23.6689 17.6326 23.9003 17.3443 24.2139 17.1888C24.4475 17.0731 24.6776 17.0602 24.7344 17.056L25.1777 17.0306C26.2384 16.9917 27.4603 17.1065 28.5186 17.7562C29.8349 18.5645 31.5986 19.7442 34.4385 23.6751C34.6956 24.0311 34.9693 24.4163 35.2559 24.8226C35.4646 24.701 35.6815 24.6204 35.8877 24.5609C36.5428 24.3719 37.4174 24.298 38.4395 24.2992C39.4791 24.3004 40.7403 24.3801 42.2031 24.5365C43.3642 24.6606 44.6423 24.8314 45.8799 25.015C46.6509 23.2382 47.3559 21.8832 48.1133 20.5843C49.6412 17.9638 51.3846 15.5798 52.3857 14.6292C52.5175 14.5042 52.6635 14.3785 52.8193 14.2748C52.9683 14.1757 53.1904 14.0528 53.4678 14.013ZM38.334 55.4505C38.092 56.4207 37.8808 57.3058 37.6973 58.1097C38.0264 58.0135 38.446 57.8706 38.9932 57.6537C39.0775 57.6202 39.1615 57.5862 39.2451 57.5531C38.9947 56.9594 38.6977 56.2611 38.334 55.4505ZM43.6699 52.7533C42.4113 52.9199 41.1365 53.1017 39.8643 53.2884C39.7809 53.3433 39.6996 53.3982 39.6191 53.4515C40.2572 54.8198 40.7339 55.9358 41.1016 56.808C41.4457 56.6692 41.7807 56.5344 42.1045 56.4017C42.5309 55.4005 43.0543 54.1667 43.6699 52.7533ZM45.7432 53.0062C45.3884 53.8153 45.062 54.5706 44.7646 55.265C45.1922 55.0704 45.5735 54.8913 45.9004 54.723C46.2053 54.5659 46.4475 54.4279 46.6318 54.3109C46.4421 54.0278 46.163 53.6171 45.7432 53.0062ZM35.1992 53.9818C35.1996 54.0917 35.1995 54.2017 35.2002 54.3119C35.3268 54.1826 35.4639 54.0523 35.6113 53.9203C35.4736 53.9408 35.3362 53.9614 35.1992 53.9818ZM54.3359 51.7835C53.7645 51.8115 53.1709 51.8444 52.5576 51.8822C53.336 52.5646 54.0578 53.2631 54.6797 53.9808C54.5633 53.2762 54.4481 52.5343 54.3359 51.7835ZM33.3135 47.4925C32.9833 48.9223 32.6805 50.0417 32.4434 50.8529C32.238 51.5553 32.0709 52.0649 31.9102 52.4349C32.336 52.3759 32.7686 52.3145 33.207 52.2513C33.229 50.398 33.2964 48.6814 33.4258 47.5023C33.4273 47.4886 33.4282 47.4749 33.4297 47.4613C33.3908 47.4718 33.352 47.482 33.3135 47.4925ZM35.2822 49.5023C35.246 50.2424 35.2242 51.0755 35.2109 51.9583C35.6492 51.8931 36.0911 51.8268 36.5361 51.7601C36.1548 51.0473 35.7306 50.2896 35.2822 49.5023ZM31.1104 48.1078C29.7317 48.5037 28.6471 48.8357 27.7432 49.1136C26.5188 49.49 25.5893 49.7788 24.7168 49.9857C23.3841 50.3017 22.2964 50.7681 21.2891 51.1009C21.2522 51.1131 21.2137 51.1239 21.1758 51.1361C21.255 51.1476 21.3368 51.1601 21.4209 51.1703C21.9098 51.2294 22.4396 51.2621 22.9941 51.2914C23.5365 51.32 24.1131 51.3458 24.6436 51.3939C26.3626 51.5497 27.5987 51.7002 28.5752 51.7708C29.0516 51.8053 29.4105 51.8154 29.6797 51.8001C29.8119 51.7926 29.9079 51.7802 29.9756 51.766C29.9953 51.7618 30.0107 51.7548 30.0234 51.7513C30.0294 51.7401 30.038 51.7275 30.0459 51.7113C30.1451 51.5063 30.2836 51.1118 30.5234 50.2914C30.6894 49.7237 30.889 48.9961 31.1104 48.1078ZM40.5068 47.4759C40.1407 48.7415 39.7896 49.9797 39.4639 51.1624C40.2476 50.6547 41.1326 50.0893 42.125 49.4583C42.3931 49.2879 42.6742 49.1109 42.9668 48.929C42.8996 48.8294 42.8311 48.7283 42.7617 48.6253C42.6354 48.438 42.506 48.2448 42.373 48.0472C41.7443 47.8316 41.1206 47.6427 40.5068 47.4759ZM44.0898 50.5863C44.0257 50.6261 43.9624 50.6662 43.8994 50.7054C43.9828 50.6946 44.0662 50.6848 44.1494 50.6742C44.1296 50.6451 44.1099 50.6157 44.0898 50.5863ZM46.9453 50.3421C47.0183 50.3343 47.0913 50.3283 47.1641 50.3206C47.1101 50.287 47.0562 50.2533 47.002 50.2201C46.9829 50.2602 46.9647 50.3012 46.9453 50.3421ZM47.9248 48.2747C47.905 48.3181 47.8852 48.3615 47.8652 48.4046C48.7032 48.9093 49.5163 49.4601 50.2891 50.0365C51.6217 49.9324 52.8832 49.854 54.0537 49.7953C53.9696 49.158 53.8942 48.5303 53.8291 47.93C53.1797 47.4571 52.4712 46.7732 51.7676 46.015C50.481 46.7686 49.1749 47.5345 47.9248 48.2747ZM36 46.7474C36.6201 47.8045 37.2175 48.8433 37.7598 49.8255C38.0158 48.9073 38.2838 47.9613 38.5615 47.0003C37.8634 46.8466 37.1915 46.7133 36.5527 46.5882C36.3661 46.6429 36.1815 46.6951 36 46.7474ZM61.707 39.7933C61.5112 39.9707 61.2911 40.1484 61.0527 40.3255C60.5009 40.7354 59.7562 41.2242 58.793 41.8275C58.2875 42.144 57.7187 42.489 57.1055 42.8587C57.2603 43.902 57.3648 44.8734 57.373 45.683C57.378 46.1711 57.3495 46.6407 57.2627 47.0492C57.182 47.4289 57.018 47.9162 56.624 48.2601C56.4057 48.4506 56.163 48.5574 55.9199 48.6078C55.9637 48.9684 56.0128 49.3363 56.0625 49.7083C57.8736 49.6398 59.3906 49.6088 60.4775 49.5746C61.1415 49.5536 61.6202 49.5319 61.9795 49.4925C62.2784 49.4598 62.4286 49.4187 62.499 49.3929C62.5181 49.3212 62.5431 49.1791 62.5586 48.8988C62.6327 47.5605 62.4775 44.9657 62.1758 42.7103C62.028 41.6054 61.8715 40.6242 61.707 39.7933ZM20.1182 37.4007C20.2975 37.9169 20.4449 38.4894 20.5518 39.1078C20.8498 40.8327 20.8532 42.9994 20.332 45.513C20.2014 46.143 20.0429 46.7667 19.9023 47.3363C19.77 47.8725 19.6535 48.3596 19.5723 48.805C19.6609 48.7729 19.7581 48.7377 19.8652 48.7005C20.6744 48.4197 22.1986 47.9272 25.0518 47.0326C26.8959 46.4543 29.2686 45.7146 31.8232 44.9173C31.8839 44.6119 31.9443 44.2962 32.0049 43.9701C31.0234 42.3612 30.062 40.8124 29.2236 39.4652C25.8122 38.8474 22.2344 37.9739 20.1182 37.4007ZM48.1045 43.0003C46.4698 43.5089 44.5415 44.1214 42.5664 44.7435C42.9496 45.3163 43.3158 45.8655 43.6641 46.3841C44.3473 46.6372 45.0375 46.9247 45.7275 47.2533C45.936 47.1288 46.1466 47.0027 46.3594 46.8763C46.3763 46.837 46.3942 46.798 46.4111 46.7581C46.7704 45.9109 47.1426 44.9068 48.1045 43.0003ZM49.9082 43.8665C49.661 44.3555 49.4529 44.7809 49.2764 45.1595C49.659 44.9351 50.0413 44.7092 50.4229 44.4857C50.251 44.2815 50.0791 44.0747 49.9082 43.8665ZM53.5371 44.9759C53.5527 44.9921 53.5685 45.0078 53.584 45.0238C53.5825 44.9993 53.5816 44.9748 53.5801 44.9505C53.5657 44.959 53.5515 44.9675 53.5371 44.9759ZM34.6396 40.1917C34.5509 40.8223 34.4613 41.4411 34.3672 42.0374C34.2828 42.5722 34.1953 43.0863 34.1084 43.5794C34.214 43.7534 34.3192 43.9281 34.4248 44.1029C35.8856 43.6455 37.3676 43.1793 38.8135 42.722C38.2924 41.9387 37.7572 41.1324 37.2139 40.3128C36.4361 40.2996 35.5772 40.2642 34.6396 40.1917ZM53.3135 41.5765C53.1288 41.5903 52.8431 41.6372 52.4023 41.7435C52.0372 41.8316 51.5953 41.9537 51.0557 42.1097C51.4265 42.569 51.8009 43.0234 52.1719 43.4583C52.6047 43.2044 53.0312 42.954 53.4482 42.7083C53.4117 42.1924 53.3698 41.8291 53.3135 41.5765ZM43.5547 37.4574C43.6446 37.6449 43.7176 37.8179 43.7676 37.9798C43.8562 38.2674 43.895 38.5751 43.8145 38.8997C43.7136 39.3058 43.456 39.6169 43.0938 39.8128C42.9917 39.868 42.8821 39.9105 42.7705 39.9476C42.5976 40.5027 42.423 41.0631 42.25 41.6273C43.9981 41.0665 45.6044 40.5455 46.9424 40.096C46.8313 39.9519 46.7233 39.8106 46.6162 39.6722C45.352 38.0388 44.705 37.2689 44.2969 36.8831C44.1068 36.7035 44.0112 36.6487 43.9678 36.6283C43.9384 36.6144 43.9072 36.6043 43.835 36.5882C43.7425 36.8749 43.6482 37.1645 43.5547 37.4574ZM40.5869 40.2337C40.2905 40.2523 39.9599 40.2695 39.5957 40.2845C39.8201 40.6225 40.0426 40.9574 40.2627 41.2884C40.3706 40.9355 40.4788 40.5838 40.5869 40.2337ZM31.8408 39.889C32.0581 40.2394 32.2798 40.5991 32.5059 40.9652C32.5536 40.6465 32.6011 40.3225 32.6475 39.9945C32.3835 39.9625 32.1146 39.9269 31.8408 39.889ZM55.3223 34.3597C55.7931 36.2999 56.3356 38.6032 56.7432 40.7406C57.0946 40.5262 57.4257 40.3237 57.7314 40.1322C58.6874 39.5334 59.3758 39.08 59.8604 38.7201C60.2061 38.4632 60.4043 38.2813 60.5166 38.1624C60.4587 38.0988 60.3847 38.0216 60.2861 37.9251C59.2774 36.9384 57.315 35.2882 55.418 34.2015C55.3862 34.2544 55.354 34.3069 55.3223 34.3597ZM54.3896 39.1996C54.2307 39.3272 54.0361 39.4566 53.7832 39.598C54.0372 39.6356 54.2965 39.7205 54.5342 39.889C54.4867 39.66 54.4391 39.4299 54.3896 39.1996ZM47.1201 27.2318C46.4953 28.7847 45.8065 30.6683 44.9941 33.0687C44.819 33.5861 44.6392 34.1254 44.4551 34.683C44.5688 34.716 44.6917 34.7586 44.8193 34.8187C45.1169 34.9588 45.3864 35.1602 45.6709 35.429C46.2132 35.9416 46.9558 36.8446 48.1973 38.4486C48.4207 38.7372 48.6748 39.0673 48.9385 39.4095C49.46 39.2259 49.9192 39.0596 50.3242 38.9085C51.0344 37.6654 51.8723 36.241 52.7598 34.7513C52.3199 33.9595 51.7065 33.0665 50.9775 32.3978C49.6631 32.0711 48.8314 32.0313 48.2227 31.9212C48.0587 31.8916 47.6553 31.7894 47.4141 31.3812C47.14 30.9172 47.3037 30.4736 47.4092 30.2835C47.6022 29.9358 47.9353 29.7366 48.1455 29.6419L48.3154 29.5726C48.7223 29.4266 49.2024 29.3811 49.7207 29.4896C50.5591 29.6652 51.2971 30.0801 51.9248 30.5794C52.0742 30.6207 52.2275 30.6636 52.3838 30.7113C52.1449 29.7068 51.9968 29.0687 51.9033 28.6517C51.85 28.4139 51.8169 28.2621 51.792 28.1498C51.5567 28.0723 51.1244 27.9602 50.333 27.8011C49.5231 27.6383 48.3845 27.4358 47.1201 27.2318ZM38.291 38.3177C39.1786 38.309 39.925 38.2731 40.5264 38.2347C40.7964 38.2175 41.0278 38.1991 41.2266 38.182C41.2817 38.007 41.3367 37.8329 41.3916 37.6595C41.1437 37.2344 40.791 36.6648 40.2939 35.89C39.9936 35.8205 39.6709 35.7445 39.3242 35.6585C38.3515 35.4174 37.1998 35.1093 35.9131 34.7142C36.7049 35.9166 37.5032 37.1277 38.291 38.3177ZM35.0518 37.0404C35.0047 37.4285 34.9558 37.8179 34.9062 38.2064C35.2352 38.2309 35.5535 38.251 35.8613 38.2669C35.5918 37.8591 35.3218 37.4497 35.0518 37.0404ZM25.0703 30.2367C26.6238 31.9595 27.8843 33.5526 30.4473 37.6497C30.9917 37.7416 31.5257 37.8274 32.043 37.8997C32.3397 37.9412 32.6306 37.9778 32.915 38.0121C33.0684 36.8129 33.2105 35.6019 33.3389 34.4437C33.1701 34.1869 33.0021 33.9309 32.835 33.6761C31.781 33.2884 30.673 32.8484 29.5293 32.3441C28.0172 31.6774 26.4621 30.9118 24.9951 30.1546C25.0199 30.182 25.0454 30.209 25.0703 30.2367ZM56.4531 32.4896C57.7027 33.2099 58.9525 34.1327 59.9854 34.9837C59.6918 34.418 59.3554 33.8732 58.9258 33.3402C58.4262 32.7204 57.8919 32.0458 57.3506 31.0111C57.0534 31.4995 56.7533 31.9937 56.4531 32.4896ZM38.4375 26.2992C37.4739 26.2981 36.8239 26.3727 36.4424 26.4828C36.4333 26.4854 36.4243 26.488 36.416 26.4906C38.2058 29.0826 40.2137 32.0891 41.5293 34.1165C41.8813 34.1921 42.1935 34.2554 42.4727 34.3089C42.6872 33.6569 42.8973 33.0277 43.1006 32.4271C43.8472 30.2211 44.4958 28.4311 45.0918 26.9212C44.0332 26.7688 42.9657 26.63 41.9902 26.5257C40.5702 26.3739 39.3838 26.3003 38.4375 26.2992ZM35.8525 29.4837C35.7753 30.3281 35.673 31.3612 35.5557 32.5042C36.6999 32.8769 37.7534 33.18 38.6875 33.429C37.8321 32.1343 36.8496 30.666 35.876 29.2357C35.8687 29.316 35.8603 29.3987 35.8525 29.4837ZM53.3096 16.5648C52.4406 17.5626 51.0958 19.4398 49.8408 21.5921C49.1914 22.706 48.5824 23.8638 47.9248 25.3353C49.0146 25.5156 49.9935 25.6928 50.7266 25.8402C51.6748 26.0308 52.2775 26.1821 52.6631 26.3373C52.8615 26.4171 53.0747 26.5259 53.2578 26.6956C53.4166 26.843 53.5111 26.9975 53.5703 27.1253L53.6191 27.2435L53.668 27.3988C53.7157 27.5717 53.7636 27.8087 53.8545 28.2142C53.9809 28.778 54.2093 29.7674 54.6445 31.5658C54.6522 31.5692 54.6603 31.572 54.668 31.5755C55.2488 30.6154 55.8288 29.6605 56.3906 28.7406C56.228 28.269 56.0664 27.75 55.9062 27.1751C55.1776 24.5606 54.1403 20.3003 53.5928 17.8304C53.4789 17.3168 53.3881 16.9054 53.3096 16.5648ZM25.9492 19.0384C26.3941 19.8838 27.2416 21.3143 28.7666 23.7201C30.0401 25.7292 31.774 28.4007 33.6689 31.2962C33.7421 30.5579 33.8071 29.8839 33.8604 29.3011C33.9594 28.2186 34.0278 27.3611 34.1416 26.7171C33.6675 26.0376 33.2203 25.4038 32.8174 24.846C30.1357 21.1341 28.569 20.1345 27.4727 19.4613C27.0538 19.2041 26.5385 19.0769 25.9492 19.0384Z"/>
</mask>
<path d="M53.4678 14.013C53.7849 13.9677 54.1048 14.0407 54.374 14.2308C54.6098 14.3974 54.751 14.6151 54.8359 14.7748C54.9994 15.0821 55.1095 15.4835 55.2031 15.8685C55.302 16.2751 55.4135 16.8004 55.5459 17.3978C56.0759 19.789 57.0721 23.8826 57.7861 26.4671C58.4783 25.3409 59.1053 24.3198 59.627 23.4769C61.954 19.7165 62.1476 19.4478 62.3447 19.1849C62.676 18.7431 63.3023 18.6535 63.7441 18.9847C64.1859 19.3161 64.2756 19.9423 63.9443 20.3841C63.8152 20.5563 63.6816 20.7239 61.3271 24.5287C60.5916 25.7173 59.6421 27.2577 58.6045 28.9525C59.2446 30.5368 59.8651 31.3182 60.4834 32.0853C61.7732 33.6857 62.3842 35.3808 62.998 36.9251C63.4942 38.1734 63.854 40.1708 64.1582 42.4447C64.4678 44.7589 64.6387 47.4939 64.5547 49.0101C64.5344 49.376 64.4953 49.79 64.3496 50.1624C64.1801 50.5955 63.8843 50.9362 63.4502 51.1585C63.0721 51.3522 62.6313 51.4323 62.1973 51.4798C61.7498 51.5288 61.197 51.5529 60.54 51.5736C59.4662 51.6074 58.0482 51.636 56.3447 51.6986C56.6134 53.4769 56.9078 55.1884 57.1436 56.4447C57.2569 57.0489 57.355 57.5362 57.4404 57.933C57.9135 58.7678 58.2802 59.5881 58.3447 60.2914C58.3512 60.3615 58.356 60.4657 58.3418 60.5833C58.3319 60.6658 58.2938 60.9409 58.0684 61.1849C57.9372 61.3268 57.754 61.4447 57.5293 61.4925C57.3152 61.538 57.1299 61.5059 57.002 61.4652C56.7729 61.3922 56.6258 61.2577 56.5723 61.2064C56.445 61.0843 56.3526 60.9433 56.2969 60.8509C56.2314 60.7425 56.1689 60.6199 56.1094 60.4915C55.9368 60.1191 55.7775 59.6532 55.5557 58.6712C55.0952 57.8934 54.4608 56.965 53.6768 55.9144C52.8296 54.7794 51.5927 53.6437 50.1182 52.4388C49.9754 52.3222 49.83 52.2072 49.6836 52.0921C49.0275 52.1475 48.3558 52.2098 47.6709 52.2796C48.0397 52.8163 48.2857 53.1756 48.4434 53.4183C48.5669 53.6085 48.6883 53.804 48.7617 53.9886C48.8045 54.0961 48.8485 54.2417 48.8555 54.4154C48.8628 54.599 48.8253 54.744 48.7979 54.8304C48.7108 55.1039 48.547 55.3076 48.4229 55.4378C48.2894 55.5779 48.1339 55.7032 47.9785 55.8148C47.6675 56.0382 47.2667 56.2679 46.8154 56.5003C45.9886 56.9262 44.8893 57.4107 43.6211 57.9398C43.3631 58.5406 43.1451 59.0426 42.9678 59.4193C42.8624 59.6432 42.7622 59.8438 42.6709 60.0023C42.6259 60.0805 42.5716 60.1691 42.5098 60.2513C42.4702 60.304 42.341 60.4764 42.125 60.596C41.9627 60.6859 41.7525 60.7553 41.5088 60.7494C41.2658 60.7434 41.0605 60.6642 40.9033 60.5677C40.6256 60.3971 40.4497 60.1427 40.3486 59.9808C40.2481 59.8198 40.1458 59.6195 40.0381 59.39C39.936 59.4305 39.8335 59.4722 39.7305 59.513C38.5972 59.9624 37.8459 60.1762 37.2295 60.2523C36.9856 61.4043 36.8083 62.2922 36.6602 62.9945C36.5731 63.4073 36.4937 63.76 36.417 64.0384C36.3518 64.2752 36.2537 64.6001 36.0801 64.849C35.9732 65.0022 35.5753 65.4814 34.9092 65.3343C34.6334 65.2734 34.4456 65.1218 34.3398 65.013C34.2324 64.9025 34.1594 64.7859 34.1113 64.6976C33.9393 64.3816 33.8311 63.9356 33.749 63.4984C33.5727 62.5583 33.4269 61.1049 33.3311 59.2425C33.2542 57.7504 33.2099 56.0001 33.2002 54.2718C31.9069 54.4569 30.658 54.6299 29.4805 54.7699C24.2335 55.3935 20.6496 55.3929 17 55.3929C16.4477 55.3929 16 54.9452 16 54.3929C16 53.8406 16.4477 53.3929 17 53.3929C18.9552 53.3929 20.8673 53.3892 23.0146 53.2943C22.9729 53.2921 22.9309 53.2907 22.8887 53.2884C22.3334 53.2591 21.7435 53.2237 21.1807 53.1556C20.6212 53.0879 20.0466 52.9834 19.5283 52.7992C19.0132 52.6161 18.4825 52.3292 18.0908 51.8529C17.3091 50.9021 17.4049 49.6049 17.5811 48.5775C17.6763 48.0219 17.8187 47.4338 17.9609 46.8578C18.1059 46.2703 18.252 45.6908 18.373 45.1068C18.8481 42.8154 18.8325 40.9026 18.5811 39.4476C18.3249 37.9658 17.8392 37.0348 17.457 36.6244C17.4315 36.5969 17.4046 36.5747 17.3818 36.5521C17.2436 36.4951 17.1245 36.442 17.0264 36.3851C16.9588 36.3459 16.8527 36.2792 16.752 36.179C16.6886 36.116 16.408 35.8275 16.4443 35.3626C16.4825 34.875 16.8283 34.5978 17.0898 34.4964C17.3028 34.414 17.4891 34.4243 17.5654 34.431C17.7412 34.4466 17.8877 34.5016 17.9766 34.5404C18.1243 34.6048 18.2751 34.6964 18.4258 34.8099C18.8118 34.9461 19.4729 35.1543 20.585 35.4564C22.285 35.9182 24.9832 36.5854 27.7578 37.1478C25.8896 34.26 24.835 32.9619 23.585 31.5755C21.2006 28.9313 19.6651 27.5082 18.6621 26.7328C17.8194 26.2775 17.3147 26.0213 17.0303 25.8822C16.8851 25.8112 16.7956 25.7702 16.7461 25.7474C16.7327 25.7412 16.6924 25.7221 16.665 25.7083C16.6576 25.7046 16.6299 25.6913 16.5977 25.6722C16.5831 25.6636 16.5459 25.6411 16.502 25.6078C16.4799 25.5911 16.44 25.5599 16.3955 25.515C16.3612 25.4803 16.2658 25.3804 16.1943 25.222C16.1156 25.0474 16.0233 24.6856 16.2393 24.3109C16.4242 23.9901 16.713 23.8856 16.8086 23.8558C17.0035 23.7952 17.1708 23.8125 17.1758 23.8128L17.3145 23.8324L17.6836 23.9173C17.8394 23.9605 18.0272 24.0231 18.2451 24.1195C18.6505 24.2988 19.1324 24.5832 19.7432 25.0433C19.8875 25.1216 20.0406 25.2052 20.2031 25.2943C22.4572 26.5302 26.5434 28.8418 30.3359 30.514C30.5386 30.6034 30.7412 30.6894 30.9414 30.7747C29.4599 28.5027 28.1172 26.4306 27.0781 24.7914C25.1976 21.8246 24.266 20.222 23.8691 19.3451C23.7677 19.1208 23.6855 18.9121 23.6338 18.7201C23.587 18.5465 23.5348 18.2824 23.5938 17.9964C23.6689 17.6326 23.9003 17.3443 24.2139 17.1888C24.4475 17.0731 24.6776 17.0602 24.7344 17.056L25.1777 17.0306C26.2384 16.9917 27.4603 17.1065 28.5186 17.7562C29.8349 18.5645 31.5986 19.7442 34.4385 23.6751C34.6956 24.0311 34.9693 24.4163 35.2559 24.8226C35.4646 24.701 35.6815 24.6204 35.8877 24.5609C36.5428 24.3719 37.4174 24.298 38.4395 24.2992C39.4791 24.3004 40.7403 24.3801 42.2031 24.5365C43.3642 24.6606 44.6423 24.8314 45.8799 25.015C46.6509 23.2382 47.3559 21.8832 48.1133 20.5843C49.6412 17.9638 51.3846 15.5798 52.3857 14.6292C52.5175 14.5042 52.6635 14.3785 52.8193 14.2748C52.9683 14.1757 53.1904 14.0528 53.4678 14.013ZM38.334 55.4505C38.092 56.4207 37.8808 57.3058 37.6973 58.1097C38.0264 58.0135 38.446 57.8706 38.9932 57.6537C39.0775 57.6202 39.1615 57.5862 39.2451 57.5531C38.9947 56.9594 38.6977 56.2611 38.334 55.4505ZM43.6699 52.7533C42.4113 52.9199 41.1365 53.1017 39.8643 53.2884C39.7809 53.3433 39.6996 53.3982 39.6191 53.4515C40.2572 54.8198 40.7339 55.9358 41.1016 56.808C41.4457 56.6692 41.7807 56.5344 42.1045 56.4017C42.5309 55.4005 43.0543 54.1667 43.6699 52.7533ZM45.7432 53.0062C45.3884 53.8153 45.062 54.5706 44.7646 55.265C45.1922 55.0704 45.5735 54.8913 45.9004 54.723C46.2053 54.5659 46.4475 54.4279 46.6318 54.3109C46.4421 54.0278 46.163 53.6171 45.7432 53.0062ZM35.1992 53.9818C35.1996 54.0917 35.1995 54.2017 35.2002 54.3119C35.3268 54.1826 35.4639 54.0523 35.6113 53.9203C35.4736 53.9408 35.3362 53.9614 35.1992 53.9818ZM54.3359 51.7835C53.7645 51.8115 53.1709 51.8444 52.5576 51.8822C53.336 52.5646 54.0578 53.2631 54.6797 53.9808C54.5633 53.2762 54.4481 52.5343 54.3359 51.7835ZM33.3135 47.4925C32.9833 48.9223 32.6805 50.0417 32.4434 50.8529C32.238 51.5553 32.0709 52.0649 31.9102 52.4349C32.336 52.3759 32.7686 52.3145 33.207 52.2513C33.229 50.398 33.2964 48.6814 33.4258 47.5023C33.4273 47.4886 33.4282 47.4749 33.4297 47.4613C33.3908 47.4718 33.352 47.482 33.3135 47.4925ZM35.2822 49.5023C35.246 50.2424 35.2242 51.0755 35.2109 51.9583C35.6492 51.8931 36.0911 51.8268 36.5361 51.7601C36.1548 51.0473 35.7306 50.2896 35.2822 49.5023ZM31.1104 48.1078C29.7317 48.5037 28.6471 48.8357 27.7432 49.1136C26.5188 49.49 25.5893 49.7788 24.7168 49.9857C23.3841 50.3017 22.2964 50.7681 21.2891 51.1009C21.2522 51.1131 21.2137 51.1239 21.1758 51.1361C21.255 51.1476 21.3368 51.1601 21.4209 51.1703C21.9098 51.2294 22.4396 51.2621 22.9941 51.2914C23.5365 51.32 24.1131 51.3458 24.6436 51.3939C26.3626 51.5497 27.5987 51.7002 28.5752 51.7708C29.0516 51.8053 29.4105 51.8154 29.6797 51.8001C29.8119 51.7926 29.9079 51.7802 29.9756 51.766C29.9953 51.7618 30.0107 51.7548 30.0234 51.7513C30.0294 51.7401 30.038 51.7275 30.0459 51.7113C30.1451 51.5063 30.2836 51.1118 30.5234 50.2914C30.6894 49.7237 30.889 48.9961 31.1104 48.1078ZM40.5068 47.4759C40.1407 48.7415 39.7896 49.9797 39.4639 51.1624C40.2476 50.6547 41.1326 50.0893 42.125 49.4583C42.3931 49.2879 42.6742 49.1109 42.9668 48.929C42.8996 48.8294 42.8311 48.7283 42.7617 48.6253C42.6354 48.438 42.506 48.2448 42.373 48.0472C41.7443 47.8316 41.1206 47.6427 40.5068 47.4759ZM44.0898 50.5863C44.0257 50.6261 43.9624 50.6662 43.8994 50.7054C43.9828 50.6946 44.0662 50.6848 44.1494 50.6742C44.1296 50.6451 44.1099 50.6157 44.0898 50.5863ZM46.9453 50.3421C47.0183 50.3343 47.0913 50.3283 47.1641 50.3206C47.1101 50.287 47.0562 50.2533 47.002 50.2201C46.9829 50.2602 46.9647 50.3012 46.9453 50.3421ZM47.9248 48.2747C47.905 48.3181 47.8852 48.3615 47.8652 48.4046C48.7032 48.9093 49.5163 49.4601 50.2891 50.0365C51.6217 49.9324 52.8832 49.854 54.0537 49.7953C53.9696 49.158 53.8942 48.5303 53.8291 47.93C53.1797 47.4571 52.4712 46.7732 51.7676 46.015C50.481 46.7686 49.1749 47.5345 47.9248 48.2747ZM36 46.7474C36.6201 47.8045 37.2175 48.8433 37.7598 49.8255C38.0158 48.9073 38.2838 47.9613 38.5615 47.0003C37.8634 46.8466 37.1915 46.7133 36.5527 46.5882C36.3661 46.6429 36.1815 46.6951 36 46.7474ZM61.707 39.7933C61.5112 39.9707 61.2911 40.1484 61.0527 40.3255C60.5009 40.7354 59.7562 41.2242 58.793 41.8275C58.2875 42.144 57.7187 42.489 57.1055 42.8587C57.2603 43.902 57.3648 44.8734 57.373 45.683C57.378 46.1711 57.3495 46.6407 57.2627 47.0492C57.182 47.4289 57.018 47.9162 56.624 48.2601C56.4057 48.4506 56.163 48.5574 55.9199 48.6078C55.9637 48.9684 56.0128 49.3363 56.0625 49.7083C57.8736 49.6398 59.3906 49.6088 60.4775 49.5746C61.1415 49.5536 61.6202 49.5319 61.9795 49.4925C62.2784 49.4598 62.4286 49.4187 62.499 49.3929C62.5181 49.3212 62.5431 49.1791 62.5586 48.8988C62.6327 47.5605 62.4775 44.9657 62.1758 42.7103C62.028 41.6054 61.8715 40.6242 61.707 39.7933ZM20.1182 37.4007C20.2975 37.9169 20.4449 38.4894 20.5518 39.1078C20.8498 40.8327 20.8532 42.9994 20.332 45.513C20.2014 46.143 20.0429 46.7667 19.9023 47.3363C19.77 47.8725 19.6535 48.3596 19.5723 48.805C19.6609 48.7729 19.7581 48.7377 19.8652 48.7005C20.6744 48.4197 22.1986 47.9272 25.0518 47.0326C26.8959 46.4543 29.2686 45.7146 31.8232 44.9173C31.8839 44.6119 31.9443 44.2962 32.0049 43.9701C31.0234 42.3612 30.062 40.8124 29.2236 39.4652C25.8122 38.8474 22.2344 37.9739 20.1182 37.4007ZM48.1045 43.0003C46.4698 43.5089 44.5415 44.1214 42.5664 44.7435C42.9496 45.3163 43.3158 45.8655 43.6641 46.3841C44.3473 46.6372 45.0375 46.9247 45.7275 47.2533C45.936 47.1288 46.1466 47.0027 46.3594 46.8763C46.3763 46.837 46.3942 46.798 46.4111 46.7581C46.7704 45.9109 47.1426 44.9068 48.1045 43.0003ZM49.9082 43.8665C49.661 44.3555 49.4529 44.7809 49.2764 45.1595C49.659 44.9351 50.0413 44.7092 50.4229 44.4857C50.251 44.2815 50.0791 44.0747 49.9082 43.8665ZM53.5371 44.9759C53.5527 44.9921 53.5685 45.0078 53.584 45.0238C53.5825 44.9993 53.5816 44.9748 53.5801 44.9505C53.5657 44.959 53.5515 44.9675 53.5371 44.9759ZM34.6396 40.1917C34.5509 40.8223 34.4613 41.4411 34.3672 42.0374C34.2828 42.5722 34.1953 43.0863 34.1084 43.5794C34.214 43.7534 34.3192 43.9281 34.4248 44.1029C35.8856 43.6455 37.3676 43.1793 38.8135 42.722C38.2924 41.9387 37.7572 41.1324 37.2139 40.3128C36.4361 40.2996 35.5772 40.2642 34.6396 40.1917ZM53.3135 41.5765C53.1288 41.5903 52.8431 41.6372 52.4023 41.7435C52.0372 41.8316 51.5953 41.9537 51.0557 42.1097C51.4265 42.569 51.8009 43.0234 52.1719 43.4583C52.6047 43.2044 53.0312 42.954 53.4482 42.7083C53.4117 42.1924 53.3698 41.8291 53.3135 41.5765ZM43.5547 37.4574C43.6446 37.6449 43.7176 37.8179 43.7676 37.9798C43.8562 38.2674 43.895 38.5751 43.8145 38.8997C43.7136 39.3058 43.456 39.6169 43.0938 39.8128C42.9917 39.868 42.8821 39.9105 42.7705 39.9476C42.5976 40.5027 42.423 41.0631 42.25 41.6273C43.9981 41.0665 45.6044 40.5455 46.9424 40.096C46.8313 39.9519 46.7233 39.8106 46.6162 39.6722C45.352 38.0388 44.705 37.2689 44.2969 36.8831C44.1068 36.7035 44.0112 36.6487 43.9678 36.6283C43.9384 36.6144 43.9072 36.6043 43.835 36.5882C43.7425 36.8749 43.6482 37.1645 43.5547 37.4574ZM40.5869 40.2337C40.2905 40.2523 39.9599 40.2695 39.5957 40.2845C39.8201 40.6225 40.0426 40.9574 40.2627 41.2884C40.3706 40.9355 40.4788 40.5838 40.5869 40.2337ZM31.8408 39.889C32.0581 40.2394 32.2798 40.5991 32.5059 40.9652C32.5536 40.6465 32.6011 40.3225 32.6475 39.9945C32.3835 39.9625 32.1146 39.9269 31.8408 39.889ZM55.3223 34.3597C55.7931 36.2999 56.3356 38.6032 56.7432 40.7406C57.0946 40.5262 57.4257 40.3237 57.7314 40.1322C58.6874 39.5334 59.3758 39.08 59.8604 38.7201C60.2061 38.4632 60.4043 38.2813 60.5166 38.1624C60.4587 38.0988 60.3847 38.0216 60.2861 37.9251C59.2774 36.9384 57.315 35.2882 55.418 34.2015C55.3862 34.2544 55.354 34.3069 55.3223 34.3597ZM54.3896 39.1996C54.2307 39.3272 54.0361 39.4566 53.7832 39.598C54.0372 39.6356 54.2965 39.7205 54.5342 39.889C54.4867 39.66 54.4391 39.4299 54.3896 39.1996ZM47.1201 27.2318C46.4953 28.7847 45.8065 30.6683 44.9941 33.0687C44.819 33.5861 44.6392 34.1254 44.4551 34.683C44.5688 34.716 44.6917 34.7586 44.8193 34.8187C45.1169 34.9588 45.3864 35.1602 45.6709 35.429C46.2132 35.9416 46.9558 36.8446 48.1973 38.4486C48.4207 38.7372 48.6748 39.0673 48.9385 39.4095C49.46 39.2259 49.9192 39.0596 50.3242 38.9085C51.0344 37.6654 51.8723 36.241 52.7598 34.7513C52.3199 33.9595 51.7065 33.0665 50.9775 32.3978C49.6631 32.0711 48.8314 32.0313 48.2227 31.9212C48.0587 31.8916 47.6553 31.7894 47.4141 31.3812C47.14 30.9172 47.3037 30.4736 47.4092 30.2835C47.6022 29.9358 47.9353 29.7366 48.1455 29.6419L48.3154 29.5726C48.7223 29.4266 49.2024 29.3811 49.7207 29.4896C50.5591 29.6652 51.2971 30.0801 51.9248 30.5794C52.0742 30.6207 52.2275 30.6636 52.3838 30.7113C52.1449 29.7068 51.9968 29.0687 51.9033 28.6517C51.85 28.4139 51.8169 28.2621 51.792 28.1498C51.5567 28.0723 51.1244 27.9602 50.333 27.8011C49.5231 27.6383 48.3845 27.4358 47.1201 27.2318ZM38.291 38.3177C39.1786 38.309 39.925 38.2731 40.5264 38.2347C40.7964 38.2175 41.0278 38.1991 41.2266 38.182C41.2817 38.007 41.3367 37.8329 41.3916 37.6595C41.1437 37.2344 40.791 36.6648 40.2939 35.89C39.9936 35.8205 39.6709 35.7445 39.3242 35.6585C38.3515 35.4174 37.1998 35.1093 35.9131 34.7142C36.7049 35.9166 37.5032 37.1277 38.291 38.3177ZM35.0518 37.0404C35.0047 37.4285 34.9558 37.8179 34.9062 38.2064C35.2352 38.2309 35.5535 38.251 35.8613 38.2669C35.5918 37.8591 35.3218 37.4497 35.0518 37.0404ZM25.0703 30.2367C26.6238 31.9595 27.8843 33.5526 30.4473 37.6497C30.9917 37.7416 31.5257 37.8274 32.043 37.8997C32.3397 37.9412 32.6306 37.9778 32.915 38.0121C33.0684 36.8129 33.2105 35.6019 33.3389 34.4437C33.1701 34.1869 33.0021 33.9309 32.835 33.6761C31.781 33.2884 30.673 32.8484 29.5293 32.3441C28.0172 31.6774 26.4621 30.9118 24.9951 30.1546C25.0199 30.182 25.0454 30.209 25.0703 30.2367ZM56.4531 32.4896C57.7027 33.2099 58.9525 34.1327 59.9854 34.9837C59.6918 34.418 59.3554 33.8732 58.9258 33.3402C58.4262 32.7204 57.8919 32.0458 57.3506 31.0111C57.0534 31.4995 56.7533 31.9937 56.4531 32.4896ZM38.4375 26.2992C37.4739 26.2981 36.8239 26.3727 36.4424 26.4828C36.4333 26.4854 36.4243 26.488 36.416 26.4906C38.2058 29.0826 40.2137 32.0891 41.5293 34.1165C41.8813 34.1921 42.1935 34.2554 42.4727 34.3089C42.6872 33.6569 42.8973 33.0277 43.1006 32.4271C43.8472 30.2211 44.4958 28.4311 45.0918 26.9212C44.0332 26.7688 42.9657 26.63 41.9902 26.5257C40.5702 26.3739 39.3838 26.3003 38.4375 26.2992ZM35.8525 29.4837C35.7753 30.3281 35.673 31.3612 35.5557 32.5042C36.6999 32.8769 37.7534 33.18 38.6875 33.429C37.8321 32.1343 36.8496 30.666 35.876 29.2357C35.8687 29.316 35.8603 29.3987 35.8525 29.4837ZM53.3096 16.5648C52.4406 17.5626 51.0958 19.4398 49.8408 21.5921C49.1914 22.706 48.5824 23.8638 47.9248 25.3353C49.0146 25.5156 49.9935 25.6928 50.7266 25.8402C51.6748 26.0308 52.2775 26.1821 52.6631 26.3373C52.8615 26.4171 53.0747 26.5259 53.2578 26.6956C53.4166 26.843 53.5111 26.9975 53.5703 27.1253L53.6191 27.2435L53.668 27.3988C53.7157 27.5717 53.7636 27.8087 53.8545 28.2142C53.9809 28.778 54.2093 29.7674 54.6445 31.5658C54.6522 31.5692 54.6603 31.572 54.668 31.5755C55.2488 30.6154 55.8288 29.6605 56.3906 28.7406C56.228 28.269 56.0664 27.75 55.9062 27.1751C55.1776 24.5606 54.1403 20.3003 53.5928 17.8304C53.4789 17.3168 53.3881 16.9054 53.3096 16.5648ZM25.9492 19.0384C26.3941 19.8838 27.2416 21.3143 28.7666 23.7201C30.0401 25.7292 31.774 28.4007 33.6689 31.2962C33.7421 30.5579 33.8071 29.8839 33.8604 29.3011C33.9594 28.2186 34.0278 27.3611 34.1416 26.7171C33.6675 26.0376 33.2203 25.4038 32.8174 24.846C30.1357 21.1341 28.569 20.1345 27.4727 19.4613C27.0538 19.2041 26.5385 19.0769 25.9492 19.0384Z" fill="black"/>
<path d="M53.4678 14.013C53.7849 13.9677 54.1048 14.0407 54.374 14.2308C54.6098 14.3974 54.751 14.6151 54.8359 14.7748C54.9994 15.0821 55.1095 15.4835 55.2031 15.8685C55.302 16.2751 55.4135 16.8004 55.5459 17.3978C56.0759 19.789 57.0721 23.8826 57.7861 26.4671C58.4783 25.3409 59.1053 24.3198 59.627 23.4769C61.954 19.7165 62.1476 19.4478 62.3447 19.1849C62.676 18.7431 63.3023 18.6535 63.7441 18.9847C64.1859 19.3161 64.2756 19.9423 63.9443 20.3841C63.8152 20.5563 63.6816 20.7239 61.3271 24.5287C60.5916 25.7173 59.6421 27.2577 58.6045 28.9525C59.2446 30.5368 59.8651 31.3182 60.4834 32.0853C61.7732 33.6857 62.3842 35.3808 62.998 36.9251C63.4942 38.1734 63.854 40.1708 64.1582 42.4447C64.4678 44.7589 64.6387 47.4939 64.5547 49.0101C64.5344 49.376 64.4953 49.79 64.3496 50.1624C64.1801 50.5955 63.8843 50.9362 63.4502 51.1585C63.0721 51.3522 62.6313 51.4323 62.1973 51.4798C61.7498 51.5288 61.197 51.5529 60.54 51.5736C59.4662 51.6074 58.0482 51.636 56.3447 51.6986C56.6134 53.4769 56.9078 55.1884 57.1436 56.4447C57.2569 57.0489 57.355 57.5362 57.4404 57.933C57.9135 58.7678 58.2802 59.5881 58.3447 60.2914C58.3512 60.3615 58.356 60.4657 58.3418 60.5833C58.3319 60.6658 58.2938 60.9409 58.0684 61.1849C57.9372 61.3268 57.754 61.4447 57.5293 61.4925C57.3152 61.538 57.1299 61.5059 57.002 61.4652C56.7729 61.3922 56.6258 61.2577 56.5723 61.2064C56.445 61.0843 56.3526 60.9433 56.2969 60.8509C56.2314 60.7425 56.1689 60.6199 56.1094 60.4915C55.9368 60.1191 55.7775 59.6532 55.5557 58.6712C55.0952 57.8934 54.4608 56.965 53.6768 55.9144C52.8296 54.7794 51.5927 53.6437 50.1182 52.4388C49.9754 52.3222 49.83 52.2072 49.6836 52.0921C49.0275 52.1475 48.3558 52.2098 47.6709 52.2796C48.0397 52.8163 48.2857 53.1756 48.4434 53.4183C48.5669 53.6085 48.6883 53.804 48.7617 53.9886C48.8045 54.0961 48.8485 54.2417 48.8555 54.4154C48.8628 54.599 48.8253 54.744 48.7979 54.8304C48.7108 55.1039 48.547 55.3076 48.4229 55.4378C48.2894 55.5779 48.1339 55.7032 47.9785 55.8148C47.6675 56.0382 47.2667 56.2679 46.8154 56.5003C45.9886 56.9262 44.8893 57.4107 43.6211 57.9398C43.3631 58.5406 43.1451 59.0426 42.9678 59.4193C42.8624 59.6432 42.7622 59.8438 42.6709 60.0023C42.6259 60.0805 42.5716 60.1691 42.5098 60.2513C42.4702 60.304 42.341 60.4764 42.125 60.596C41.9627 60.6859 41.7525 60.7553 41.5088 60.7494C41.2658 60.7434 41.0605 60.6642 40.9033 60.5677C40.6256 60.3971 40.4497 60.1427 40.3486 59.9808C40.2481 59.8198 40.1458 59.6195 40.0381 59.39C39.936 59.4305 39.8335 59.4722 39.7305 59.513C38.5972 59.9624 37.8459 60.1762 37.2295 60.2523C36.9856 61.4043 36.8083 62.2922 36.6602 62.9945C36.5731 63.4073 36.4937 63.76 36.417 64.0384C36.3518 64.2752 36.2537 64.6001 36.0801 64.849C35.9732 65.0022 35.5753 65.4814 34.9092 65.3343C34.6334 65.2734 34.4456 65.1218 34.3398 65.013C34.2324 64.9025 34.1594 64.7859 34.1113 64.6976C33.9393 64.3816 33.8311 63.9356 33.749 63.4984C33.5727 62.5583 33.4269 61.1049 33.3311 59.2425C33.2542 57.7504 33.2099 56.0001 33.2002 54.2718C31.9069 54.4569 30.658 54.6299 29.4805 54.7699C24.2335 55.3935 20.6496 55.3929 17 55.3929C16.4477 55.3929 16 54.9452 16 54.3929C16 53.8406 16.4477 53.3929 17 53.3929C18.9552 53.3929 20.8673 53.3892 23.0146 53.2943C22.9729 53.2921 22.9309 53.2907 22.8887 53.2884C22.3334 53.2591 21.7435 53.2237 21.1807 53.1556C20.6212 53.0879 20.0466 52.9834 19.5283 52.7992C19.0132 52.6161 18.4825 52.3292 18.0908 51.8529C17.3091 50.9021 17.4049 49.6049 17.5811 48.5775C17.6763 48.0219 17.8187 47.4338 17.9609 46.8578C18.1059 46.2703 18.252 45.6908 18.373 45.1068C18.8481 42.8154 18.8325 40.9026 18.5811 39.4476C18.3249 37.9658 17.8392 37.0348 17.457 36.6244C17.4315 36.5969 17.4046 36.5747 17.3818 36.5521C17.2436 36.4951 17.1245 36.442 17.0264 36.3851C16.9588 36.3459 16.8527 36.2792 16.752 36.179C16.6886 36.116 16.408 35.8275 16.4443 35.3626C16.4825 34.875 16.8283 34.5978 17.0898 34.4964C17.3028 34.414 17.4891 34.4243 17.5654 34.431C17.7412 34.4466 17.8877 34.5016 17.9766 34.5404C18.1243 34.6048 18.2751 34.6964 18.4258 34.8099C18.8118 34.9461 19.4729 35.1543 20.585 35.4564C22.285 35.9182 24.9832 36.5854 27.7578 37.1478C25.8896 34.26 24.835 32.9619 23.585 31.5755C21.2006 28.9313 19.6651 27.5082 18.6621 26.7328C17.8194 26.2775 17.3147 26.0213 17.0303 25.8822C16.8851 25.8112 16.7956 25.7702 16.7461 25.7474C16.7327 25.7412 16.6924 25.7221 16.665 25.7083C16.6576 25.7046 16.6299 25.6913 16.5977 25.6722C16.5831 25.6636 16.5459 25.6411 16.502 25.6078C16.4799 25.5911 16.44 25.5599 16.3955 25.515C16.3612 25.4803 16.2658 25.3804 16.1943 25.222C16.1156 25.0474 16.0233 24.6856 16.2393 24.3109C16.4242 23.9901 16.713 23.8856 16.8086 23.8558C17.0035 23.7952 17.1708 23.8125 17.1758 23.8128L17.3145 23.8324L17.6836 23.9173C17.8394 23.9605 18.0272 24.0231 18.2451 24.1195C18.6505 24.2988 19.1324 24.5832 19.7432 25.0433C19.8875 25.1216 20.0406 25.2052 20.2031 25.2943C22.4572 26.5302 26.5434 28.8418 30.3359 30.514C30.5386 30.6034 30.7412 30.6894 30.9414 30.7747C29.4599 28.5027 28.1172 26.4306 27.0781 24.7914C25.1976 21.8246 24.266 20.222 23.8691 19.3451C23.7677 19.1208 23.6855 18.9121 23.6338 18.7201C23.587 18.5465 23.5348 18.2824 23.5938 17.9964C23.6689 17.6326 23.9003 17.3443 24.2139 17.1888C24.4475 17.0731 24.6776 17.0602 24.7344 17.056L25.1777 17.0306C26.2384 16.9917 27.4603 17.1065 28.5186 17.7562C29.8349 18.5645 31.5986 19.7442 34.4385 23.6751C34.6956 24.0311 34.9693 24.4163 35.2559 24.8226C35.4646 24.701 35.6815 24.6204 35.8877 24.5609C36.5428 24.3719 37.4174 24.298 38.4395 24.2992C39.4791 24.3004 40.7403 24.3801 42.2031 24.5365C43.3642 24.6606 44.6423 24.8314 45.8799 25.015C46.6509 23.2382 47.3559 21.8832 48.1133 20.5843C49.6412 17.9638 51.3846 15.5798 52.3857 14.6292C52.5175 14.5042 52.6635 14.3785 52.8193 14.2748C52.9683 14.1757 53.1904 14.0528 53.4678 14.013ZM38.334 55.4505C38.092 56.4207 37.8808 57.3058 37.6973 58.1097C38.0264 58.0135 38.446 57.8706 38.9932 57.6537C39.0775 57.6202 39.1615 57.5862 39.2451 57.5531C38.9947 56.9594 38.6977 56.2611 38.334 55.4505ZM43.6699 52.7533C42.4113 52.9199 41.1365 53.1017 39.8643 53.2884C39.7809 53.3433 39.6996 53.3982 39.6191 53.4515C40.2572 54.8198 40.7339 55.9358 41.1016 56.808C41.4457 56.6692 41.7807 56.5344 42.1045 56.4017C42.5309 55.4005 43.0543 54.1667 43.6699 52.7533ZM45.7432 53.0062C45.3884 53.8153 45.062 54.5706 44.7646 55.265C45.1922 55.0704 45.5735 54.8913 45.9004 54.723C46.2053 54.5659 46.4475 54.4279 46.6318 54.3109C46.4421 54.0278 46.163 53.6171 45.7432 53.0062ZM35.1992 53.9818C35.1996 54.0917 35.1995 54.2017 35.2002 54.3119C35.3268 54.1826 35.4639 54.0523 35.6113 53.9203C35.4736 53.9408 35.3362 53.9614 35.1992 53.9818ZM54.3359 51.7835C53.7645 51.8115 53.1709 51.8444 52.5576 51.8822C53.336 52.5646 54.0578 53.2631 54.6797 53.9808C54.5633 53.2762 54.4481 52.5343 54.3359 51.7835ZM33.3135 47.4925C32.9833 48.9223 32.6805 50.0417 32.4434 50.8529C32.238 51.5553 32.0709 52.0649 31.9102 52.4349C32.336 52.3759 32.7686 52.3145 33.207 52.2513C33.229 50.398 33.2964 48.6814 33.4258 47.5023C33.4273 47.4886 33.4282 47.4749 33.4297 47.4613C33.3908 47.4718 33.352 47.482 33.3135 47.4925ZM35.2822 49.5023C35.246 50.2424 35.2242 51.0755 35.2109 51.9583C35.6492 51.8931 36.0911 51.8268 36.5361 51.7601C36.1548 51.0473 35.7306 50.2896 35.2822 49.5023ZM31.1104 48.1078C29.7317 48.5037 28.6471 48.8357 27.7432 49.1136C26.5188 49.49 25.5893 49.7788 24.7168 49.9857C23.3841 50.3017 22.2964 50.7681 21.2891 51.1009C21.2522 51.1131 21.2137 51.1239 21.1758 51.1361C21.255 51.1476 21.3368 51.1601 21.4209 51.1703C21.9098 51.2294 22.4396 51.2621 22.9941 51.2914C23.5365 51.32 24.1131 51.3458 24.6436 51.3939C26.3626 51.5497 27.5987 51.7002 28.5752 51.7708C29.0516 51.8053 29.4105 51.8154 29.6797 51.8001C29.8119 51.7926 29.9079 51.7802 29.9756 51.766C29.9953 51.7618 30.0107 51.7548 30.0234 51.7513C30.0294 51.7401 30.038 51.7275 30.0459 51.7113C30.1451 51.5063 30.2836 51.1118 30.5234 50.2914C30.6894 49.7237 30.889 48.9961 31.1104 48.1078ZM40.5068 47.4759C40.1407 48.7415 39.7896 49.9797 39.4639 51.1624C40.2476 50.6547 41.1326 50.0893 42.125 49.4583C42.3931 49.2879 42.6742 49.1109 42.9668 48.929C42.8996 48.8294 42.8311 48.7283 42.7617 48.6253C42.6354 48.438 42.506 48.2448 42.373 48.0472C41.7443 47.8316 41.1206 47.6427 40.5068 47.4759ZM44.0898 50.5863C44.0257 50.6261 43.9624 50.6662 43.8994 50.7054C43.9828 50.6946 44.0662 50.6848 44.1494 50.6742C44.1296 50.6451 44.1099 50.6157 44.0898 50.5863ZM46.9453 50.3421C47.0183 50.3343 47.0913 50.3283 47.1641 50.3206C47.1101 50.287 47.0562 50.2533 47.002 50.2201C46.9829 50.2602 46.9647 50.3012 46.9453 50.3421ZM47.9248 48.2747C47.905 48.3181 47.8852 48.3615 47.8652 48.4046C48.7032 48.9093 49.5163 49.4601 50.2891 50.0365C51.6217 49.9324 52.8832 49.854 54.0537 49.7953C53.9696 49.158 53.8942 48.5303 53.8291 47.93C53.1797 47.4571 52.4712 46.7732 51.7676 46.015C50.481 46.7686 49.1749 47.5345 47.9248 48.2747ZM36 46.7474C36.6201 47.8045 37.2175 48.8433 37.7598 49.8255C38.0158 48.9073 38.2838 47.9613 38.5615 47.0003C37.8634 46.8466 37.1915 46.7133 36.5527 46.5882C36.3661 46.6429 36.1815 46.6951 36 46.7474ZM61.707 39.7933C61.5112 39.9707 61.2911 40.1484 61.0527 40.3255C60.5009 40.7354 59.7562 41.2242 58.793 41.8275C58.2875 42.144 57.7187 42.489 57.1055 42.8587C57.2603 43.902 57.3648 44.8734 57.373 45.683C57.378 46.1711 57.3495 46.6407 57.2627 47.0492C57.182 47.4289 57.018 47.9162 56.624 48.2601C56.4057 48.4506 56.163 48.5574 55.9199 48.6078C55.9637 48.9684 56.0128 49.3363 56.0625 49.7083C57.8736 49.6398 59.3906 49.6088 60.4775 49.5746C61.1415 49.5536 61.6202 49.5319 61.9795 49.4925C62.2784 49.4598 62.4286 49.4187 62.499 49.3929C62.5181 49.3212 62.5431 49.1791 62.5586 48.8988C62.6327 47.5605 62.4775 44.9657 62.1758 42.7103C62.028 41.6054 61.8715 40.6242 61.707 39.7933ZM20.1182 37.4007C20.2975 37.9169 20.4449 38.4894 20.5518 39.1078C20.8498 40.8327 20.8532 42.9994 20.332 45.513C20.2014 46.143 20.0429 46.7667 19.9023 47.3363C19.77 47.8725 19.6535 48.3596 19.5723 48.805C19.6609 48.7729 19.7581 48.7377 19.8652 48.7005C20.6744 48.4197 22.1986 47.9272 25.0518 47.0326C26.8959 46.4543 29.2686 45.7146 31.8232 44.9173C31.8839 44.6119 31.9443 44.2962 32.0049 43.9701C31.0234 42.3612 30.062 40.8124 29.2236 39.4652C25.8122 38.8474 22.2344 37.9739 20.1182 37.4007ZM48.1045 43.0003C46.4698 43.5089 44.5415 44.1214 42.5664 44.7435C42.9496 45.3163 43.3158 45.8655 43.6641 46.3841C44.3473 46.6372 45.0375 46.9247 45.7275 47.2533C45.936 47.1288 46.1466 47.0027 46.3594 46.8763C46.3763 46.837 46.3942 46.798 46.4111 46.7581C46.7704 45.9109 47.1426 44.9068 48.1045 43.0003ZM49.9082 43.8665C49.661 44.3555 49.4529 44.7809 49.2764 45.1595C49.659 44.9351 50.0413 44.7092 50.4229 44.4857C50.251 44.2815 50.0791 44.0747 49.9082 43.8665ZM53.5371 44.9759C53.5527 44.9921 53.5685 45.0078 53.584 45.0238C53.5825 44.9993 53.5816 44.9748 53.5801 44.9505C53.5657 44.959 53.5515 44.9675 53.5371 44.9759ZM34.6396 40.1917C34.5509 40.8223 34.4613 41.4411 34.3672 42.0374C34.2828 42.5722 34.1953 43.0863 34.1084 43.5794C34.214 43.7534 34.3192 43.9281 34.4248 44.1029C35.8856 43.6455 37.3676 43.1793 38.8135 42.722C38.2924 41.9387 37.7572 41.1324 37.2139 40.3128C36.4361 40.2996 35.5772 40.2642 34.6396 40.1917ZM53.3135 41.5765C53.1288 41.5903 52.8431 41.6372 52.4023 41.7435C52.0372 41.8316 51.5953 41.9537 51.0557 42.1097C51.4265 42.569 51.8009 43.0234 52.1719 43.4583C52.6047 43.2044 53.0312 42.954 53.4482 42.7083C53.4117 42.1924 53.3698 41.8291 53.3135 41.5765ZM43.5547 37.4574C43.6446 37.6449 43.7176 37.8179 43.7676 37.9798C43.8562 38.2674 43.895 38.5751 43.8145 38.8997C43.7136 39.3058 43.456 39.6169 43.0938 39.8128C42.9917 39.868 42.8821 39.9105 42.7705 39.9476C42.5976 40.5027 42.423 41.0631 42.25 41.6273C43.9981 41.0665 45.6044 40.5455 46.9424 40.096C46.8313 39.9519 46.7233 39.8106 46.6162 39.6722C45.352 38.0388 44.705 37.2689 44.2969 36.8831C44.1068 36.7035 44.0112 36.6487 43.9678 36.6283C43.9384 36.6144 43.9072 36.6043 43.835 36.5882C43.7425 36.8749 43.6482 37.1645 43.5547 37.4574ZM40.5869 40.2337C40.2905 40.2523 39.9599 40.2695 39.5957 40.2845C39.8201 40.6225 40.0426 40.9574 40.2627 41.2884C40.3706 40.9355 40.4788 40.5838 40.5869 40.2337ZM31.8408 39.889C32.0581 40.2394 32.2798 40.5991 32.5059 40.9652C32.5536 40.6465 32.6011 40.3225 32.6475 39.9945C32.3835 39.9625 32.1146 39.9269 31.8408 39.889ZM55.3223 34.3597C55.7931 36.2999 56.3356 38.6032 56.7432 40.7406C57.0946 40.5262 57.4257 40.3237 57.7314 40.1322C58.6874 39.5334 59.3758 39.08 59.8604 38.7201C60.2061 38.4632 60.4043 38.2813 60.5166 38.1624C60.4587 38.0988 60.3847 38.0216 60.2861 37.9251C59.2774 36.9384 57.315 35.2882 55.418 34.2015C55.3862 34.2544 55.354 34.3069 55.3223 34.3597ZM54.3896 39.1996C54.2307 39.3272 54.0361 39.4566 53.7832 39.598C54.0372 39.6356 54.2965 39.7205 54.5342 39.889C54.4867 39.66 54.4391 39.4299 54.3896 39.1996ZM47.1201 27.2318C46.4953 28.7847 45.8065 30.6683 44.9941 33.0687C44.819 33.5861 44.6392 34.1254 44.4551 34.683C44.5688 34.716 44.6917 34.7586 44.8193 34.8187C45.1169 34.9588 45.3864 35.1602 45.6709 35.429C46.2132 35.9416 46.9558 36.8446 48.1973 38.4486C48.4207 38.7372 48.6748 39.0673 48.9385 39.4095C49.46 39.2259 49.9192 39.0596 50.3242 38.9085C51.0344 37.6654 51.8723 36.241 52.7598 34.7513C52.3199 33.9595 51.7065 33.0665 50.9775 32.3978C49.6631 32.0711 48.8314 32.0313 48.2227 31.9212C48.0587 31.8916 47.6553 31.7894 47.4141 31.3812C47.14 30.9172 47.3037 30.4736 47.4092 30.2835C47.6022 29.9358 47.9353 29.7366 48.1455 29.6419L48.3154 29.5726C48.7223 29.4266 49.2024 29.3811 49.7207 29.4896C50.5591 29.6652 51.2971 30.0801 51.9248 30.5794C52.0742 30.6207 52.2275 30.6636 52.3838 30.7113C52.1449 29.7068 51.9968 29.0687 51.9033 28.6517C51.85 28.4139 51.8169 28.2621 51.792 28.1498C51.5567 28.0723 51.1244 27.9602 50.333 27.8011C49.5231 27.6383 48.3845 27.4358 47.1201 27.2318ZM38.291 38.3177C39.1786 38.309 39.925 38.2731 40.5264 38.2347C40.7964 38.2175 41.0278 38.1991 41.2266 38.182C41.2817 38.007 41.3367 37.8329 41.3916 37.6595C41.1437 37.2344 40.791 36.6648 40.2939 35.89C39.9936 35.8205 39.6709 35.7445 39.3242 35.6585C38.3515 35.4174 37.1998 35.1093 35.9131 34.7142C36.7049 35.9166 37.5032 37.1277 38.291 38.3177ZM35.0518 37.0404C35.0047 37.4285 34.9558 37.8179 34.9062 38.2064C35.2352 38.2309 35.5535 38.251 35.8613 38.2669C35.5918 37.8591 35.3218 37.4497 35.0518 37.0404ZM25.0703 30.2367C26.6238 31.9595 27.8843 33.5526 30.4473 37.6497C30.9917 37.7416 31.5257 37.8274 32.043 37.8997C32.3397 37.9412 32.6306 37.9778 32.915 38.0121C33.0684 36.8129 33.2105 35.6019 33.3389 34.4437C33.1701 34.1869 33.0021 33.9309 32.835 33.6761C31.781 33.2884 30.673 32.8484 29.5293 32.3441C28.0172 31.6774 26.4621 30.9118 24.9951 30.1546C25.0199 30.182 25.0454 30.209 25.0703 30.2367ZM56.4531 32.4896C57.7027 33.2099 58.9525 34.1327 59.9854 34.9837C59.6918 34.418 59.3554 33.8732 58.9258 33.3402C58.4262 32.7204 57.8919 32.0458 57.3506 31.0111C57.0534 31.4995 56.7533 31.9937 56.4531 32.4896ZM38.4375 26.2992C37.4739 26.2981 36.8239 26.3727 36.4424 26.4828C36.4333 26.4854 36.4243 26.488 36.416 26.4906C38.2058 29.0826 40.2137 32.0891 41.5293 34.1165C41.8813 34.1921 42.1935 34.2554 42.4727 34.3089C42.6872 33.6569 42.8973 33.0277 43.1006 32.4271C43.8472 30.2211 44.4958 28.4311 45.0918 26.9212C44.0332 26.7688 42.9657 26.63 41.9902 26.5257C40.5702 26.3739 39.3838 26.3003 38.4375 26.2992ZM35.8525 29.4837C35.7753 30.3281 35.673 31.3612 35.5557 32.5042C36.6999 32.8769 37.7534 33.18 38.6875 33.429C37.8321 32.1343 36.8496 30.666 35.876 29.2357C35.8687 29.316 35.8603 29.3987 35.8525 29.4837ZM53.3096 16.5648C52.4406 17.5626 51.0958 19.4398 49.8408 21.5921C49.1914 22.706 48.5824 23.8638 47.9248 25.3353C49.0146 25.5156 49.9935 25.6928 50.7266 25.8402C51.6748 26.0308 52.2775 26.1821 52.6631 26.3373C52.8615 26.4171 53.0747 26.5259 53.2578 26.6956C53.4166 26.843 53.5111 26.9975 53.5703 27.1253L53.6191 27.2435L53.668 27.3988C53.7157 27.5717 53.7636 27.8087 53.8545 28.2142C53.9809 28.778 54.2093 29.7674 54.6445 31.5658C54.6522 31.5692 54.6603 31.572 54.668 31.5755C55.2488 30.6154 55.8288 29.6605 56.3906 28.7406C56.228 28.269 56.0664 27.75 55.9062 27.1751C55.1776 24.5606 54.1403 20.3003 53.5928 17.8304C53.4789 17.3168 53.3881 16.9054 53.3096 16.5648ZM25.9492 19.0384C26.3941 19.8838 27.2416 21.3143 28.7666 23.7201C30.0401 25.7292 31.774 28.4007 33.6689 31.2962C33.7421 30.5579 33.8071 29.8839 33.8604 29.3011C33.9594 28.2186 34.0278 27.3611 34.1416 26.7171C33.6675 26.0376 33.2203 25.4038 32.8174 24.846C30.1357 21.1341 28.569 20.1345 27.4727 19.4613C27.0538 19.2041 26.5385 19.0769 25.9492 19.0384Z" stroke="white" stroke-width="4" stroke-linecap="round" mask="url(#path-2-outside-1_119_17)"/>
</svg>
