<svg width="24" height="24" viewBox="0 0 24 24" fill="none" xmlns="http://www.w3.org/2000/svg">
<g clip-path="url(#clip0_197_13)">
<path fill-rule="evenodd" clip-rule="evenodd" d="M12 0C3 0 0 3 0 12C0 21 3 24 12 24C21 24 24 21 24 12C24 3 21 0 12 0ZM6.65625 8.4375C7.64001 8.4375 8.4375 7.64001 8.4375 6.65625C8.4375 5.67249 7.64001 4.875 6.65625 4.875C5.67249 4.875 4.875 5.67249 4.875 6.65625C4.875 7.64001 5.67249 8.4375 6.65625 8.4375ZM8.4375 11.9062C8.4375 12.89 7.64001 13.6875 6.65625 13.6875C5.67249 13.6875 4.875 12.89 4.875 11.9062C4.875 10.9225 5.67249 10.125 6.65625 10.125C7.64001 10.125 8.4375 10.9225 8.4375 11.9062ZM6.65625 18.9375C7.64001 18.9375 8.4375 18.14 8.4375 17.1562C8.4375 16.1725 7.64001 15.375 6.65625 15.375C5.67249 15.375 4.875 16.1725 4.875 17.1562C4.875 18.14 5.67249 18.9375 6.65625 18.9375ZM13.6875 6.65625C13.6875 7.64001 12.89 8.4375 11.9062 8.4375C10.9225 8.4375 10.125 7.64001 10.125 6.65625C10.125 5.67249 10.9225 4.875 11.9062 4.875C12.89 4.875 13.6875 5.67249 13.6875 6.65625ZM11.9062 13.6875C12.89 13.6875 13.6875 12.89 13.6875 11.9062C13.6875 10.9225 12.89 10.125 11.9062 10.125C10.9225 10.125 10.125 10.9225 10.125 11.9062C10.125 12.89 10.9225 13.6875 11.9062 13.6875ZM13.6875 17.1562C13.6875 18.14 12.89 18.9375 11.9062 18.9375C10.9225 18.9375 10.125 18.14 10.125 17.1562C10.125 16.1725 10.9225 15.375 11.9062 15.375C12.89 15.375 13.6875 16.1725 13.6875 17.1562ZM17.1562 8.4375C18.14 8.4375 18.9375 7.64001 18.9375 6.65625C18.9375 5.67249 18.14 4.875 17.1562 4.875C16.1725 4.875 15.375 5.67249 15.375 6.65625C15.375 7.64001 16.1725 8.4375 17.1562 8.4375ZM18.9375 11.9062C18.9375 12.89 18.14 13.6875 17.1562 13.6875C16.1725 13.6875 15.375 12.89 15.375 11.9062C15.375 10.9225 16.1725 10.125 17.1562 10.125C18.14 10.125 18.9375 10.9225 18.9375 11.9062ZM17.1562 18.9375C18.14 18.9375 18.9375 18.14 18.9375 17.1562C18.9375 16.1725 18.14 15.375 17.1562 15.375C16.1725 15.375 15.375 16.1725 15.375 17.1562C15.375 18.14 16.1725 18.9375 17.1562 18.9375Z" fill="white"/>
</g>
<defs>
<clipPath id="clip0_197_13">
<rect width="24" height="24" fill="white"/>
</clipPath>
</defs>
</svg>
