<svg width="191" height="128" viewBox="0 0 191 128" fill="none" xmlns="http://www.w3.org/2000/svg">
<g clip-path="url(#clip0_185_2)">
<path d="M47.7181 31.5199H83.79L78.2089 52.9599C77.4417 55.8207 75.7595 58.3498 73.4206 60.1599C71.0951 61.9684 68.2237 62.9279 65.2805 62.8799H48.5162C44.8657 62.8292 41.3046 64.0127 38.4075 66.2399C35.4393 68.5434 33.2856 71.7396 32.2625 75.3599C31.5235 78.0202 31.4413 80.8207 32.0231 83.5199C32.5576 85.9818 33.6116 88.3002 35.1142 90.3199C36.6367 92.3204 38.6043 93.9364 40.8602 95.0399C43.2403 96.2223 45.8651 96.8255 48.5215 96.7999H58.7365C59.649 96.7839 60.5513 96.9866 61.3701 97.3898C62.1889 97.793 62.9002 98.386 63.445 99.1199C64.0419 99.8282 64.4521 100.676 64.6378 101.584C64.8235 102.493 64.7793 103.433 64.5091 104.32L58.1247 128H46.952C39.598 128.074 32.3377 126.343 25.8036 122.96C19.5288 119.749 14.0401 115.187 9.73092 109.6C5.45848 104.019 2.48623 97.5492 1.03217 90.6666C-0.510458 83.4356 -0.317164 75.9412 1.59612 68.7999L2.23456 66.3999C4.93449 56.3754 10.8498 47.5201 19.0681 41.1999C23.0983 38.1366 27.5877 35.7335 32.3689 34.0799C37.3046 32.3644 42.4943 31.4989 47.7181 31.5199Z" fill="#FF6C2C"/>
<path d="M65.9136 128L97.3621 9.92002C98.1293 7.05948 99.8116 4.53017 102.15 2.72002C104.474 0.911243 107.344 -0.0483247 110.285 1.8335e-05H143.649C151.003 -0.0729464 158.263 1.65727 164.797 5.04002C171.066 8.24588 176.545 12.8089 180.837 18.3987C185.13 23.9886 188.129 30.4653 189.617 37.36C191.214 44.5894 190.995 52.1034 188.978 59.2267L188.34 61.6267C186.994 66.6635 184.837 71.4464 181.955 75.7867C177.691 82.2224 171.902 87.4976 165.105 91.1413C158.309 94.7851 150.718 96.6837 143.011 96.6667H114.121L119.867 75.0667C120.666 72.2645 122.345 69.7952 124.655 68.0267C126.981 66.2181 129.852 65.2587 132.796 65.3067H142.053C145.781 65.3109 149.405 64.0709 152.353 61.7819C155.301 59.4933 157.405 56.2864 158.333 52.6667C159.068 50.1049 159.141 47.398 158.546 44.8C158.005 42.3365 156.944 40.0177 155.434 38C153.899 35.9909 151.935 34.351 149.688 33.2C147.331 31.9716 144.709 31.34 142.053 31.36H124.177L100.874 118.24C100.075 121.042 98.3959 123.511 96.0853 125.28C93.8113 127.07 90.9964 128.03 88.1048 128H65.9136Z" fill="#FF6C2C"/>
</g>
<defs>
<clipPath id="clip0_185_2">
<rect width="191" height="128" fill="white"/>
</clipPath>
</defs>
</svg>
