<svg width="128" height="128" viewBox="0 0 128 128" fill="none" xmlns="http://www.w3.org/2000/svg">
<path d="M75.096 78.7999C76.3369 81.3155 78.2624 83.43 80.6512 84.9003C83.04 86.3706 85.7951 87.1372 88.6 87.1119C94.272 87.1119 97.896 84.2759 97.896 80.3599C97.896 75.6679 94.172 74.0039 87.932 71.2719L84.508 69.8039C74.632 65.5959 68.068 60.3239 68.068 49.1799C68.068 38.9119 75.892 31.0999 88.116 31.0999C92.0834 30.8121 96.0476 31.7001 99.5131 33.653C102.979 35.6059 105.791 38.5371 107.6 42.0799L96.94 48.9239C96.242 47.1683 95.0263 45.6667 93.4545 44.6185C91.8826 43.5704 90.029 43.0254 88.14 43.0559C87.3166 42.9731 86.485 43.0627 85.6982 43.3192C84.9113 43.5756 84.1866 43.9932 83.5701 44.5453C82.9537 45.0974 82.459 45.7719 82.1178 46.5258C81.7765 47.2797 81.5961 48.0964 81.588 48.9239C81.588 53.0319 84.132 54.6919 89.988 57.2359L93.412 58.6999C105.044 63.6879 111.608 68.7719 111.608 80.2039C111.608 92.5279 101.928 99.2799 88.924 99.2799C83.8587 99.6021 78.8083 98.4518 74.3823 95.9676C69.9562 93.4834 66.3435 89.7716 63.98 85.2799L75.096 78.7999ZM26.744 79.9999C28.896 83.8159 30.852 87.0399 35.544 87.0399C40.04 87.0399 42.88 85.2799 42.88 78.4399V31.8999H56.568V78.6319C56.568 92.8039 48.256 99.2559 36.128 99.2559C31.8439 99.4879 27.5901 98.4175 23.926 96.1856C20.2619 93.9537 17.3593 90.665 15.6 86.7519L26.744 79.9999Z" fill="#F5DE19"/>
</svg>
