<svg width="128" height="128" viewBox="0 0 128 128" fill="none" xmlns="http://www.w3.org/2000/svg">
<path d="M95.308 32.9719C98.713 33.764 101.807 35.547 104.2 38.0959C105.518 39.4753 106.663 41.0107 107.608 42.6679C107.652 42.8479 101.472 46.9999 97.724 49.3159C97.588 49.4079 97.048 48.8199 96.436 47.9159C95.7513 46.739 94.7795 45.7548 93.6113 45.0553C92.4431 44.3558 91.1167 43.9638 89.756 43.9159C85.448 43.6199 82.672 45.8759 82.692 49.6479C82.6548 50.5746 82.8661 51.4944 83.304 52.3119C84.252 54.2719 86.012 55.4479 91.54 57.8439C101.716 62.2239 106.084 65.1119 108.78 69.2159C110.304 71.809 111.242 74.7038 111.53 77.6978C111.817 80.6917 111.447 83.7123 110.444 86.5479C109.066 89.6576 106.881 92.3418 104.115 94.3218C101.349 96.3019 98.1039 97.5055 94.716 97.8079C91.1147 98.221 87.4759 98.1834 83.884 97.6959C78.382 96.7918 73.3135 94.1511 69.42 90.1599C67.9488 88.5033 66.7033 86.6593 65.716 84.6759C66.1311 84.3671 66.5683 84.089 67.024 83.8439C67.656 83.4839 70.048 82.1079 72.304 80.7999L76.4 78.3999L77.256 79.6479C78.6977 81.7097 80.5329 83.466 82.656 84.8159C84.8001 85.992 87.2288 86.5493 89.6712 86.4257C92.1135 86.3021 94.4735 85.5024 96.488 84.1159C97.5271 83.1031 98.1767 81.7569 98.3229 80.3133C98.4692 78.8696 98.1028 77.4205 97.288 76.2199C96.184 74.6399 93.928 73.3119 87.516 70.5319C82.4882 68.8365 77.9087 66.0265 74.12 62.3119C72.3157 60.2558 70.9832 57.8297 70.216 55.2039C69.6487 52.2126 69.5649 49.1497 69.968 46.1319C70.7207 42.6593 72.5228 39.502 75.1301 37.0879C77.7373 34.6738 81.0238 33.1196 84.544 32.6359C88.1285 32.2076 91.7571 32.3208 95.308 32.9719ZM61.936 38.9039L61.98 44.7199H43.46V97.3119H30.4V44.7319H11.88V39.0199C11.8307 37.0638 11.8841 35.1064 12.04 33.1559C12.108 33.0639 23.368 33.0199 37.02 33.0439L61.864 33.1119L61.936 38.9039Z" fill="#007ACC"/>
</svg>
