<?xml version="1.0" encoding="UTF-8"?>
<svg id="Layer_2" data-name="Layer 2" xmlns="http://www.w3.org/2000/svg" xmlns:xlink="http://www.w3.org/1999/xlink" viewBox="0 0 1010.42 320.86">
  <defs>
    <pattern id="New_Pattern" data-name="New Pattern" x="0" y="0" width="129.6" height="114.02" patternTransform="translate(-2353.51 -2542.49) scale(.7)" patternUnits="userSpaceOnUse" viewBox="0 0 129.6 114.02">
      <g>
        <rect class="cls-3" width="129.6" height="114.02"/>
        <text class="cls-1" transform="translate(0 10.26)"><tspan x="0" y="0">010110011011011101</tspan><tspan x="0" y="14.4">100101101111110110</tspan><tspan x="0" y="28.8">011111110101001001</tspan><tspan x="0" y="43.2">100010101011101100</tspan><tspan x="0" y="57.6">110011110011110110</tspan><tspan x="0" y="72">001100010010000010</tspan><tspan x="0" y="86.4">011101010101001001</tspan><tspan x="0" y="100.8">010111100101010110</tspan></text>
      </g>
    </pattern>
  </defs>
  <g id="Layer_1-2" data-name="Layer 1">
    <g>
      <path class="cls-2" d="M43.01,253.22c-8.79,0-17.23-.64-25.32-1.91-8.1-1.27-13.99-2.83-17.69-4.68v-40.93c4.16,1.62,9.13,3.01,14.92,4.16,5.78,1.16,11.67,1.73,17.69,1.73,12.95,0,22.37-2.14,28.27-6.42,5.9-4.28,8.85-12.08,8.85-23.41V0h53.42v184.19c0,23.13-6.82,40.41-20.47,51.86-13.65,11.45-33.53,17.17-59.66,17.17Z"/>
      <path class="cls-2" d="M219.57,253.22c-16.19,0-30.24-3.76-42.14-11.27-11.91-7.51-21.1-18.09-27.58-31.74-6.48-13.64-9.71-29.71-9.71-48.21s3.35-35.03,10.06-48.91c6.7-13.88,16.13-24.63,28.27-32.26,12.14-7.63,26.3-11.45,42.49-11.45s30.58,3.94,41.1,11.79c10.52,7.86,16.7,18.62,18.56,32.26l-2.77.35v-40.93h50.99v176.9h-50.99v-39.2l3.47.69c-2.31,12.72-9.19,22.89-20.64,30.52s-25.15,11.45-41.1,11.45ZM236.22,211.59c12.71,0,22.77-4.34,30.18-13.01,7.4-8.67,11.1-21.1,11.1-37.29s-3.76-28.62-11.27-37.29c-7.52-8.67-17.75-13.01-30.7-13.01s-22.78,4.4-30.18,13.18c-7.4,8.79-11.1,21.28-11.1,37.46s3.76,28.56,11.27,37.12c7.51,8.56,17.74,12.83,30.7,12.83Z"/>
      <path class="cls-2" d="M404.79,246.28l-67.99-173.44h56.19l55.85,158.17-44.05,15.26ZM367.33,320.86l48.91-108.22,9.02-14.92,45.79-124.87h55.5l-107.18,248.01h-52.03Z"/>
      <path class="cls-2" d="M645.87,253.22c-16.88,0-30.41-3.93-40.58-11.79-10.18-7.86-16.19-18.61-18.04-32.26l2.77-.35v112.04h-52.03V72.84h50.99v39.2l-3.12-.69c2.54-12.95,9.48-23.18,20.81-30.7,11.33-7.51,25.32-11.27,41.97-11.27s29.77,3.76,41.45,11.27c11.67,7.52,20.69,18.1,27.06,31.74,6.36,13.65,9.54,29.72,9.54,48.21s-3.35,35.03-10.06,48.91c-6.71,13.87-16.08,24.63-28.1,32.26-12.03,7.63-26.25,11.45-42.67,11.45ZM631.3,211.59c12.25,0,22.2-4.39,29.83-13.18,7.63-8.79,11.45-21.27,11.45-37.46s-3.88-28.56-11.62-37.12c-7.75-8.55-17.86-12.83-30.35-12.83s-21.91,4.34-29.66,13.01c-7.75,8.67-11.62,21.1-11.62,37.29s3.87,28.62,11.62,37.29c7.75,8.67,17.86,13.01,30.35,13.01Z"/>
      <path class="cls-2" d="M816.18,253.22c-16.19,0-30.24-3.76-42.15-11.27-11.91-7.51-21.1-18.09-27.58-31.74-6.48-13.64-9.71-29.71-9.71-48.21s3.35-35.03,10.06-48.91c6.71-13.88,16.13-24.63,28.27-32.26s26.3-11.45,42.49-11.45,30.58,3.94,41.1,11.79c10.52,7.86,16.7,18.62,18.56,32.26l-2.77.35v-40.93h50.99v176.9h-50.99v-39.2l3.47.69c-2.31,12.72-9.19,22.89-20.64,30.52-11.45,7.63-25.15,11.45-41.1,11.45ZM832.83,211.59c12.71,0,22.77-4.34,30.18-13.01,7.4-8.67,11.1-21.1,11.1-37.29s-3.76-28.62-11.27-37.29c-7.52-8.67-17.75-13.01-30.7-13.01s-22.78,4.4-30.18,13.18c-7.4,8.79-11.1,21.28-11.1,37.46s3.76,28.56,11.27,37.12c7.51,8.56,17.75,12.83,30.7,12.83Z"/>
      <path class="cls-2" d="M958.39,249.75V0h52.03v249.75h-52.03Z"/>
    </g>
  </g>
</svg>